<svg width="65" height="67" viewBox="0 0 65 67" fill="none" xmlns="http://www.w3.org/2000/svg">
<path d="M21.6667 48.4583C18.2893 48.4607 15.0329 47.162 12.5366 44.8171C10.0402 42.4723 8.48401 39.2505 8.17335 35.784C7.86268 32.3174 8.81995 28.8563 10.8573 26.0797C12.8947 23.3032 15.8652 21.4116 19.1858 20.7762C19.7691 17.576 21.419 14.6865 23.8502 12.6075C26.2814 10.5284 29.341 9.3905 32.5 9.3905C35.659 9.3905 38.7186 10.5284 41.1498 12.6075C43.581 14.6865 45.2309 17.576 45.8142 20.7762C49.1237 21.4245 52.0802 23.3207 54.1066 26.0946C56.1331 28.8686 57.0842 32.3212 56.7743 35.779C56.4645 39.2367 54.9158 42.4514 52.4307 44.7957C49.9455 47.1401 46.7021 48.4459 43.3333 48.4583M24.375 34.5L32.5 26.125M32.5 26.125L40.625 34.5M32.5 26.125V59.625" stroke="#6B58CA" stroke-width="5" stroke-linecap="round" stroke-linejoin="round"/>
</svg>
