<svg width="77" height="67" viewBox="0 0 77 67" fill="none" xmlns="http://www.w3.org/2000/svg">
<path d="M60.9583 31.7083H16.0417M60.9583 31.7083C62.6601 31.7083 64.2922 32.2966 65.4956 33.3437C66.699 34.3907 67.375 35.8109 67.375 37.2917V54.0417C67.375 55.5225 66.699 56.9426 65.4956 57.9897C64.2922 59.0368 62.6601 59.625 60.9583 59.625H16.0417C14.3399 59.625 12.7078 59.0368 11.5044 57.9897C10.301 56.9426 9.625 55.5225 9.625 54.0417V37.2917C9.625 35.8109 10.301 34.3907 11.5044 33.3437C12.7078 32.2966 14.3399 31.7083 16.0417 31.7083M60.9583 31.7083V26.125C60.9583 24.6442 60.2823 23.2241 59.0789 22.177C57.8756 21.1299 56.2435 20.5417 54.5417 20.5417M16.0417 31.7083V26.125C16.0417 24.6442 16.7177 23.2241 17.9211 22.177C19.1244 21.1299 20.7565 20.5417 22.4583 20.5417M54.5417 20.5417V14.9583C54.5417 13.4775 53.8656 12.0574 52.6623 11.0103C51.4589 9.96324 49.8268 9.375 48.125 9.375H28.875C27.1732 9.375 25.5411 9.96324 24.3377 11.0103C23.1344 12.0574 22.4583 13.4775 22.4583 14.9583V20.5417M54.5417 20.5417H22.4583" stroke="#6B58CA" stroke-width="4" stroke-linecap="round" stroke-linejoin="round"/>
</svg>
