<svg width="76" height="87" viewBox="0 0 76 87" fill="none" xmlns="http://www.w3.org/2000/svg">
<path d="M61.6667 72V24C61.6667 22.4087 60.9994 20.8826 59.8117 19.7574C58.6239 18.6321 57.013 18 55.3333 18H23.6667C21.987 18 20.3761 18.6321 19.1883 19.7574C18.0006 20.8826 17.3333 22.4087 17.3333 24V72M61.6667 72H68M61.6667 72H45.8333M17.3333 72H11M17.3333 72H33.1667M45.8333 72V57C45.8333 56.2044 45.4997 55.4413 44.9058 54.8787C44.312 54.3161 43.5065 54 42.6667 54H36.3333C35.4935 54 34.688 54.3161 34.0942 54.8787C33.5003 55.4413 33.1667 56.2044 33.1667 57V72M45.8333 72H33.1667M30 30H33.1667M30 42H33.1667M45.8333 30H49M45.8333 42H49" stroke="#6B58CA" stroke-width="5" stroke-linecap="round" stroke-linejoin="round"/>
</svg>
